# xmcd
#
# Track frame offsets:
#	150
#	17332
#	42827
#	61605
#	98960
#	125775
#	153950
#	169400
#	186367
#	218197
#	260659
#	286322
#
# Disc length: 4116 seconds
# Revision: 0
# Processed by: cddbd v1.5.2PL0 Copyright (c) Steve Scherf et al.
# Submitted via: dBpowerAMP V12.0
#
DISCID=a910120c
DTITLE=Various Artist - Jazz on CD 18 ~ JSP Blues Special [dBP-T-FLAC]
DYEAR=1994
DGENRE=Blues
TTITLE0=Phillip Walker and Otis Grand - Dressin' Trashy
TTITLE1=The Butler Twins - You Don't Need Me
TTITLE2=Joe Houston and Otis Gran - Camilla's Hope
TTITLE3=Luisiana Red - Sun Goes Down
TTITLE4=Guitar Shorty - Shorty Jumps In
TTITLE5=Larry Garner - No Free Rides
TTITLE6=U. P. Wilson - Boogie Boy
TTITLE7=Charlie Sayles - Hip Guy
TTITLE8=Phil Guy - Texas Flood
TTITLE9=Buddy Guy - Tell Me What's Inside of You
TTITLE10=Byther Smith - Addressing the Nation With the Blues
TTITLE11=Tutu Jones - Exited
EXTD=
EXTT0=
EXTT1=
EXTT2=
EXTT3=
EXTT4=
EXTT5=
EXTT6=
EXTT7=
EXTT8=
EXTT9=
EXTT10=
EXTT11=
PLAYORDER=
